{
  "asset": {
    "version": "2.0",
    "generator": "THREE.GLTFExporter"
  },
  "scenes": [
    {
      "nodes": [
        0
      ]
    }
  ],
  "scene": 0,
  "nodes": [
    {
      "children": [
        5
      ],
      "matrix": [
        0.01,
        0,
        0,
        0,
        0,
        0.01,
        0,
        0,
        0,
        0,
        0.01,
        0,
        0,
        0,
        0,
        1
      ]
    },
    {
      "matrix": [
        -3.337023032572362e-16,
        -5.551115123125793e-17,
        -0.9999999999999992,
        0,
        -0.9999999999999999,
        -1.7536000455060458e-16,
        2.0384307709529773e-16,
        0,
        2.875688707299267e-17,
        1.0000000000000004,
        -9.436895709313833e-16,
        0,
        -237.47615823635525,
        5.762057497804567e-14,
        779.5530158760281,
        1.0000000000000002
      ],
      "name": "Pentagon",
      "mesh": 0
    },
    {
      "matrix": [
        0.9049771223272304,
        0.3443152338381965,
        -0.24992684491921485,
        0,
        0.35560030842435386,
        -0.9346381228307052,
        0,
        0,
        -0.23359115718029574,
        -0.08887406313679846,
        -0.9682647221647223,
        0,
        0,
        0,
        0,
        1
      ],
      "name": "Directional Light",
      "extensions": {
        "KHR_lights_punctual": {
          "light": 0
        }
      }
    },
    {
      "matrix": [
        1,
        0,
        0,
        0,
        0,
        0.00009999999957066574,
        -0.999999995,
        0,
        0,
        0.999999995,
        0.00009999999957066574,
        0,
        -235.30197630607802,
        1056.9979257420762,
        784.4659357593151,
        1
      ],
      "name": "Personal Camera",
      "camera": 0
    },
    {
      "matrix": [
        1,
        0,
        0,
        0,
        0,
        1,
        0,
        0,
        0,
        0,
        1,
        0,
        0,
        1,
        0,
        1
      ],
      "name": "Default Ambient Light"
    },
    {
      "name": "Scene 1",
      "children": [
        1,
        2,
        3,
        4
      ]
    }
  ],
  "bufferViews": [
    {
      "buffer": 0,
      "byteOffset": 0,
      "byteLength": 11808,
      "target": 34962,
      "byteStride": 12
    },
    {
      "buffer": 0,
      "byteOffset": 11808,
      "byteLength": 11808,
      "target": 34962,
      "byteStride": 12
    },
    {
      "buffer": 0,
      "byteOffset": 23616,
      "byteLength": 7872,
      "target": 34962,
      "byteStride": 8
    },
    {
      "buffer": 0,
      "byteOffset": 31488,
      "byteLength": 11760,
      "target": 34963
    }
  ],
  "buffers": [
    {
      "byteLength": 43248,
      "uri": "data:application/octet-stream;base64,"
    }
  ],
  "accessors": [
    {
      "bufferView": 0,
      "componentType": 5126,
      "count": 984,
      "max": [
        6.928203105926514,
        7.717708587646484,
        2
      ],
      "min": [
        -6.928203105926514,
        -7.732050895690918,
        0
      ],
      "type": "VEC3"
    },
    {
      "bufferView": 1,
      "componentType": 5126,
      "count": 984,
      "max": [
        1,
        0.9999302625656128,
        1
      ],
      "min": [
        -1,
        -0.9999163746833801,
        -1
      ],
      "type": "VEC3"
    },
    {
      "bufferView": 2,
      "componentType": 5126,
      "count": 984,
      "max": [
        1,
        1
      ],
      "min": [
        0,
        0
      ],
      "type": "VEC2"
    },
    {
      "bufferView": 3,
      "componentType": 5125,
      "count": 2940,
      "max": [
        983
      ],
      "min": [
        0
      ],
      "type": "SCALAR"
    }
  ],
  "meshes": [
    {
      "primitives": [
        {
          "mode": 4,
          "attributes": {
            "POSITION": 0,
            "NORMAL": 1,
            "TEXCOORD_0": 2
          },
          "extras": {
            "shape": {
              "points": [
                0,
                8,
                0,
                8,
                0,
                8,
                1,
                6.928203230275509,
                4.000000000000001,
                6.928203230275509,
                4.000000000000001,
                6.928203230275509,
                4.000000000000001,
                1,
                6.92820323027551,
                -3.9999999999999982,
                6.92820323027551,
                -3.9999999999999982,
                6.92820323027551,
                -3.9999999999999982,
                1,
                9.797174393178826e-16,
                -8,
                9.797174393178826e-16,
                -8,
                9.797174393178826e-16,
                -8,
                1,
                -6.928203230275507,
                -4.0000000000000036,
                -6.928203230275507,
                -4.0000000000000036,
                -6.928203230275507,
                -4.0000000000000036,
                1,
                -6.928203230275512,
                3.9999999999999947,
                -6.928203230275512,
                3.9999999999999947,
                -6.928203230275512,
                3.9999999999999947,
                1
              ],
              "shapeHoles": [],
              "isClosed": true,
              "roundness": 1
            },
            "parameters": {
              "width": 16,
              "depth": 2,
              "spikes": 6,
              "cornerRadius": 1,
              "extrudeBevelSize": 0,
              "extrudeBevelSegments": 1,
              "height": 16,
              "type": "PolygonGeometry"
            },
            "type": "PolygonGeometry"
          },
          "indices": 3
        }
      ]
    }
  ],
  "extensions": {
    "KHR_lights_punctual": {
      "lights": [
        {
          "name": "Directional Light",
          "color": [
            1,
            1,
            1
          ],
          "intensity": 1.539,
          "type": "directional"
        }
      ]
    }
  },
  "cameras": [
    {
      "type": "orthographic",
      "orthographic": {
        "xmag": 0.8022036898429243,
        "ymag": 0.41269619512622313,
        "zfar": 100000,
        "znear": 0
      },
      "name": "Camera"
    }
  ],
  "extensionsUsed": [
    "KHR_lights_punctual"
  ]
}